<svg version="1.1" id="Layer_1" xmlns="http://www.w3.org/2000/svg" xmlns:xlink="http://www.w3.org/1999/xlink" x="0px"
	y="0px" width="100%" viewBox="0 0 768 768" enable-background="new 0 0 768 768" xml:space="preserve">
	<path fill="none" opacity="1.000000" stroke="none" d="
M769.000000,262.000000 
	C769.000000,431.333344 769.000000,600.166687 769.000000,769.000000 
	C513.000000,769.000000 257.000000,769.000000 1.000000,769.000000 
	C1.000000,513.000000 1.000000,257.000000 1.000000,1.000000 
	C257.000000,1.000000 513.000000,1.000000 769.000000,1.000000 
	C769.000000,87.833336 769.000000,174.666672 769.000000,262.000000 
M39.133602,290.630188 
	C25.992647,338.899780 23.055866,387.878510 30.389605,437.268219 
	C40.895969,508.024139 69.121185,571.163452 117.935852,623.529602 
	C215.115051,727.778931 334.995728,765.659058 473.041962,731.864929 
	C658.316956,686.509216 771.865540,505.341125 737.114380,318.103210 
	C701.375732,125.545303 513.899048,-3.198479 320.860474,32.253769 
	C185.169189,57.173973 76.125275,156.950974 39.133602,290.630188 
z" />
	<path fill="#A40000" opacity="1.000000" stroke="none" d="
M39.241455,290.235687 
	C76.125275,156.950974 185.169189,57.173973 320.860474,32.253769 
	C513.899048,-3.198479 701.375732,125.545303 737.114380,318.103210 
	C771.865540,505.341125 658.316956,686.509216 473.041962,731.864929 
	C334.995728,765.659058 215.115051,727.778931 117.935852,623.529602 
	C69.121185,571.163452 40.895969,508.024139 30.389605,437.268219 
	C23.055866,387.878510 25.992647,338.899780 39.241455,290.235687 
M645.901733,147.608017 
	C638.285278,140.169388 630.928345,132.441254 623.008484,125.341019 
	C583.586731,89.999077 538.645447,64.364838 487.857300,49.127068 
	C444.766022,36.198559 400.800415,31.124533 355.979950,35.308689 
	C309.000122,39.694431 264.404724,52.578468 222.616547,74.704536 
	C183.947037,95.179321 149.765137,121.432632 121.138260,154.620575 
	C88.160767,192.852310 63.951542,235.987915 49.343273,284.430664 
	C36.303242,327.672974 31.124586,371.784088 35.283802,416.777008 
	C40.106819,468.950684 55.569973,517.869568 81.725090,563.351990 
	C99.382347,594.057007 121.363815,621.484436 147.396011,645.260193 
	C162.691223,659.229675 179.539642,671.847717 196.991028,683.044922 
	C261.987244,724.747864 333.315033,743.028564 410.489929,738.107300 
	C443.660004,735.992065 475.796936,728.894348 506.955627,717.550232 
	C563.141418,697.094238 610.884766,664.200439 650.648376,619.522705 
	C664.890686,603.520264 677.553406,586.392639 688.377014,568.013672 
	C727.877563,500.940063 745.026978,428.695190 737.076843,350.957916 
	C731.793335,299.294861 715.708374,251.108658 689.303650,206.395676 
	C676.979309,185.526031 662.276001,166.386292 645.901733,147.608017 
z" />
	<path fill="#A90000" opacity="1.000000" stroke="none" d="
M646.124939,147.885040 
	C662.276001,166.386292 676.979309,185.526031 689.303650,206.395676 
	C715.708374,251.108658 731.793335,299.294861 737.076843,350.957916 
	C745.026978,428.695190 727.877563,500.940063 688.377014,568.013672 
	C677.553406,586.392639 664.890686,603.520264 650.648376,619.522705 
	C610.884766,664.200439 563.141418,697.094238 506.955627,717.550232 
	C475.796936,728.894348 443.660004,735.992065 410.489929,738.107300 
	C333.315033,743.028564 261.987244,724.747864 196.991028,683.044922 
	C179.539642,671.847717 162.691223,659.229675 147.396011,645.260193 
	C121.363815,621.484436 99.382347,594.057007 81.725090,563.351990 
	C55.569973,517.869568 40.106819,468.950684 35.283802,416.777008 
	C31.124586,371.784088 36.303242,327.672974 49.343273,284.430664 
	C63.951542,235.987915 88.160767,192.852310 121.138260,154.620575 
	C149.765137,121.432632 183.947037,95.179321 222.616547,74.704536 
	C264.404724,52.578468 309.000122,39.694431 355.979950,35.308689 
	C400.800415,31.124533 444.766022,36.198559 487.857300,49.127068 
	C538.645447,64.364838 583.586731,89.999077 623.008484,125.341019 
	C630.928345,132.441254 638.285278,140.169388 646.124939,147.885040 
M519.620728,695.158081 
	C520.267822,695.305481 521.026794,695.749756 521.544678,695.554504 
	C526.657288,693.627136 531.924072,691.978943 536.782776,689.529114 
	C572.950317,671.293518 604.979431,647.573059 632.737488,617.933838 
	C657.792114,591.181274 678.345398,561.540161 693.455078,528.140320 
	C716.514038,477.168274 727.324890,423.895325 724.115234,367.854950 
	C721.428406,320.942932 709.597168,276.456085 688.647034,234.537674 
	C665.808594,188.841003 633.643555,150.596161 593.387024,119.175262 
	C591.482361,117.688660 588.979187,116.968979 586.680664,115.201126 
	C581.119080,113.082359 575.557556,110.963593 569.837524,108.171310 
	C567.884583,106.012566 566.296631,103.254120 563.912842,101.803047 
	C555.382019,96.610008 546.798401,91.419350 537.847412,87.014862 
	C484.333435,60.682430 427.965576,48.535942 368.133484,51.750797 
	C322.132324,54.222496 278.714447,65.759483 237.547699,85.843796 
	C194.726929,106.735069 158.419144,136.198792 128.027451,172.793015 
	C87.188614,221.966492 62.931236,278.526215 53.970669,341.747223 
	C53.709301,343.591339 52.501873,345.301361 51.287674,346.838074 
	C50.928616,346.722137 50.569561,346.606201 50.210503,346.490234 
	C50.170467,346.644440 50.069016,346.811981 50.099197,346.950928 
	C51.696507,354.303253 53.304939,361.653137 54.311211,369.348450 
	C53.216316,372.336243 51.199047,375.321411 51.190544,378.312286 
	C51.158394,389.618652 51.365120,400.958618 52.230671,412.228516 
	C54.954407,447.692932 63.021935,481.910431 76.695854,514.812561 
	C96.461456,562.372498 125.716705,603.153076 164.073410,637.389954 
	C194.328247,664.395264 228.511765,685.092041 266.412445,699.552917 
	C321.071289,720.407715 377.381989,726.678955 435.285400,718.257874 
	C463.780609,714.113708 491.301697,706.427917 518.367798,694.976501 
	C518.564148,694.947083 518.760559,694.917603 519.620728,695.158081 
z" />
	<path fill="#AD0000" opacity="1.000000" stroke="none" d="
M51.735558,347.073883 
	C52.501873,345.301361 53.709301,343.591339 53.970669,341.747223 
	C62.931236,278.526215 87.188614,221.966492 128.027451,172.793015 
	C158.419144,136.198792 194.726929,106.735069 237.547699,85.843796 
	C278.714447,65.759483 322.132324,54.222496 368.133484,51.750797 
	C427.965576,48.535942 484.333435,60.682430 537.847412,87.014862 
	C546.798401,91.419350 555.382019,96.610008 563.912842,101.803047 
	C566.296631,103.254120 567.884583,106.012566 569.526978,108.539299 
	C554.059387,104.658669 538.672546,103.219391 522.864380,104.813828 
	C520.785889,103.008827 519.059631,101.056267 516.893494,100.091789 
	C472.913788,80.509880 427.052765,70.563141 378.686249,71.824776 
	C343.311981,72.747498 309.215485,79.349403 276.257751,91.828835 
	C226.291550,110.748489 183.076065,139.750061 148.308792,180.507339 
	C111.224007,223.981415 87.204445,273.960510 76.770866,330.221008 
	C74.079689,344.732574 71.160492,359.348633 72.589447,374.154541 
	C63.552406,366.461639 56.568401,357.588409 51.735558,347.073883 
z" />
	<path fill="#AD0000" opacity="1.000000" stroke="none" d="
M517.774414,695.054565 
	C491.301697,706.427917 463.780609,714.113708 435.285400,718.257874 
	C377.381989,726.678955 321.071289,720.407715 266.412445,699.552917 
	C228.511765,685.092041 194.328247,664.395264 164.073410,637.389954 
	C125.716705,603.153076 96.461456,562.372498 76.695854,514.812561 
	C63.021935,481.910431 54.954407,447.692932 52.230671,412.228516 
	C51.365120,400.958618 51.158394,389.618652 51.190544,378.312286 
	C51.199047,375.321411 53.216316,372.336243 54.754402,369.526337 
	C58.725628,381.322174 63.722561,392.220703 70.758606,402.262512 
	C70.040901,404.580688 69.033600,406.676453 69.195480,408.677673 
	C71.461403,436.689606 76.387245,464.227600 85.838287,490.739441 
	C103.707794,540.866455 131.590073,584.500122 170.998001,620.593079 
	C192.517700,640.302612 216.190186,656.849609 242.171234,670.052185 
	C296.592255,697.706848 354.356232,708.265564 415.041382,703.086243 
	C450.869812,700.028503 485.300537,691.424500 517.980652,676.152222 
	C521.232849,674.632385 524.944824,674.096313 528.357422,673.473999 
	C525.491699,679.906494 522.711975,685.968567 519.954956,692.004028 
	C519.977661,691.977417 520.015442,691.918579 519.705811,692.064819 
	C519.249084,692.839478 519.101990,693.467896 518.986572,694.054077 
	C519.018311,694.011902 519.076050,693.923584 518.761719,693.960266 
	C518.223022,694.349487 517.998718,694.702026 517.774414,695.054565 
z" />
	<path fill="#010000" opacity="1.000000" stroke="none" d="
M523.011841,105.126358 
	C538.672546,103.219391 554.059387,104.658669 569.606201,108.876060 
	C575.557556,110.963593 581.119080,113.082359 586.265625,115.573547 
	C578.782043,116.066231 571.713623,116.186493 564.235535,116.321320 
	C557.182556,118.478157 550.539124,120.620438 543.545166,122.838577 
	C537.961487,126.538589 532.728271,130.162735 527.205444,133.939850 
	C525.153137,135.279968 523.390503,136.467148 520.650391,138.312622 
	C532.692322,144.434525 540.306824,152.207703 545.900146,162.421783 
	C547.704712,170.194427 549.436401,177.600998 551.108887,185.456757 
	C551.755920,195.753113 547.891907,204.391754 543.598877,213.140900 
	C541.845886,215.397598 540.380798,217.506439 538.605896,219.767700 
	C535.832764,222.201157 533.369446,224.482208 530.574219,226.874496 
	C527.495605,228.673523 524.748901,230.361298 521.633911,232.086182 
	C516.846252,233.471985 512.426941,234.820694 507.590698,236.110077 
	C501.447906,236.017181 495.721954,235.983582 489.674591,235.764221 
	C479.086304,233.174393 470.384399,227.969711 462.626465,220.435760 
	C458.993073,214.701675 455.543304,209.278809 452.062378,203.471054 
	C450.974884,198.055328 449.918488,193.024506 448.917297,187.543549 
	C449.782532,181.055023 450.592590,175.016647 451.603210,168.715637 
	C452.909882,165.660202 454.016052,162.867386 455.281372,159.772659 
	C457.981110,155.359802 460.521698,151.248871 463.382660,146.999908 
	C466.496948,142.960861 469.290833,139.059799 472.378906,134.995728 
	C476.112610,131.467621 479.552094,128.102539 483.306183,124.650879 
	C488.076416,121.296814 492.532013,118.029343 497.313965,114.667007 
	C506.097504,111.423553 514.554688,108.274948 523.011841,105.126358 
z" />
	<path fill="#010000" opacity="1.000000" stroke="none" d="
M71.012657,401.996185 
	C63.722561,392.220703 58.725628,381.322174 55.054901,369.353760 
	C53.304939,361.653137 51.696507,354.303253 50.099197,346.950928 
	C50.069016,346.811981 50.170467,346.644440 50.210503,346.490234 
	C50.569561,346.606201 50.928616,346.722137 51.511616,346.955994 
	C56.568401,357.588409 63.552406,366.461639 72.770798,374.426270 
	C79.153000,378.296570 85.046410,381.743561 91.201553,385.432953 
	C95.103577,386.932770 98.743858,388.190186 103.276146,389.755737 
	C102.615967,378.551544 105.035545,369.118225 109.459366,359.896545 
	C115.229164,353.832642 120.713242,347.949554 126.490692,341.892639 
	C131.601761,339.524902 136.419464,337.330902 141.651947,335.143463 
	C146.346771,334.681732 150.626831,334.213440 155.346100,333.814148 
	C159.197784,334.237976 162.610245,334.592804 166.371857,335.081390 
	C172.128067,337.538116 177.535141,339.861084 183.107498,342.472473 
	C187.468170,346.603455 191.663574,350.446014 195.912079,354.626343 
	C198.699554,360.973755 201.433929,366.983368 204.227264,373.384735 
	C207.182999,384.901825 205.461060,395.579498 201.041168,406.343262 
	C195.884781,413.080566 190.849716,419.482086 185.491821,425.995911 
	C178.786819,429.089325 172.404663,432.070374 165.606262,435.059937 
	C161.755768,435.487335 158.321518,435.906250 154.432770,436.280518 
	C149.985718,436.178772 145.993164,436.121735 141.565781,435.958557 
	C137.043961,435.372803 132.956985,434.893158 128.479553,434.277405 
	C120.739220,432.390167 113.389305,430.639008 105.846184,428.586151 
	C99.476364,425.166077 93.299759,422.047638 86.966385,418.630798 
	C81.543968,412.886993 76.278313,407.441589 71.012657,401.996185 
z" />
	<path fill="#AC0000" opacity="1.000000" stroke="none" d="
M564.645142,116.306763 
	C571.713623,116.186493 578.782043,116.066231 586.302612,115.919060 
	C588.979187,116.968979 591.482361,117.688660 593.387024,119.175262 
	C633.643555,150.596161 665.808594,188.841003 688.647034,234.537674 
	C709.597168,276.456085 721.428406,320.942932 724.115234,367.854950 
	C727.324890,423.895325 716.514038,477.168274 693.455078,528.140320 
	C678.345398,561.540161 657.792114,591.181274 632.737488,617.933838 
	C604.979431,647.573059 572.950317,671.293518 536.782776,689.529114 
	C531.924072,691.978943 526.657288,693.627136 521.544678,695.554504 
	C521.026794,695.749756 520.267822,695.305481 519.315186,694.781555 
	C519.009644,694.405029 519.076050,693.923584 519.076050,693.923584 
	C519.076050,693.923584 519.018311,694.011902 519.320679,693.878052 
	C519.753845,693.135681 519.884644,692.527161 520.015442,691.918579 
	C520.015442,691.918579 519.977661,691.977417 520.282593,692.211182 
	C522.181702,691.314392 524.013733,690.408752 525.330505,689.015991 
	C532.547302,681.382812 539.637756,673.630188 547.153198,665.867737 
	C550.288269,664.683411 553.247498,663.889709 555.763733,662.364929 
	C587.871094,642.908569 615.261047,618.018494 638.911377,589.018433 
	C664.917908,557.129333 683.526123,521.198914 695.807800,481.980103 
	C705.535156,450.918274 710.578979,418.980377 710.671997,386.530029 
	C710.742126,362.045868 707.564819,337.725952 701.908875,313.765778 
	C688.187073,255.636414 660.839478,204.964493 619.406799,161.969299 
	C602.834656,144.772232 584.666016,129.408386 564.645142,116.306763 
z" />
	<path fill="#010000" opacity="1.000000" stroke="none" d="
M518.761719,693.960266 
	C519.076050,693.923584 519.009644,694.405029 518.983276,694.646545 
	C518.760559,694.917603 518.564148,694.947083 518.071106,695.015503 
	C517.998718,694.702026 518.223022,694.349487 518.761719,693.960266 
z" />
	<path fill="#B20000" opacity="1.000000" stroke="none" d="
M90.939819,385.190582 
	C85.046410,381.743561 79.153000,378.296570 73.078247,374.577789 
	C71.160492,359.348633 74.079689,344.732574 76.770866,330.221008 
	C87.204445,273.960510 111.224007,223.981415 148.308792,180.507339 
	C183.076065,139.750061 226.291550,110.748489 276.257751,91.828835 
	C309.215485,79.349403 343.311981,72.747498 378.686249,71.824776 
	C427.052765,70.563141 472.913788,80.509880 516.893494,100.091789 
	C519.059631,101.056267 520.785889,103.008827 522.864380,104.813820 
	C514.554688,108.274948 506.097504,111.423553 497.167114,114.372353 
	C494.409698,112.629356 492.323761,110.547386 489.811829,109.623238 
	C447.433411,94.031967 403.723450,87.988831 358.744537,92.318222 
	C326.864319,95.386818 296.228027,103.289925 266.852173,116.352547 
	C221.787415,136.391571 183.989731,165.771637 153.781387,204.523422 
	C112.473602,257.513733 91.803261,317.982147 90.939819,385.190582 
z" />
	<path fill="#010000" opacity="1.000000" stroke="none" d="
M546.771606,665.918579 
	C539.637756,673.630188 532.547302,681.382812 525.330505,689.015991 
	C524.013733,690.408752 522.181702,691.314392 520.259888,692.237793 
	C522.711975,685.968567 525.491699,679.906494 528.548462,673.165955 
	C530.158081,665.990417 531.490723,659.493286 532.891235,652.537231 
	C532.123230,644.811401 531.287354,637.544617 530.380493,629.922485 
	C528.553162,629.440308 526.442322,628.616699 525.098633,629.300476 
	C516.854187,633.496216 508.298035,636.472290 498.975281,635.647156 
	C492.989471,635.117432 487.087433,633.640381 480.902222,632.355835 
	C475.674255,628.952637 470.691895,625.781555 465.499023,622.332581 
	C461.982880,617.937988 458.677185,613.821289 455.270508,609.368042 
	C453.905914,606.357117 452.642303,603.682861 451.323761,600.593750 
	C450.487457,593.454651 449.706055,586.730347 449.053711,579.625916 
	C451.479370,572.171753 453.775970,565.097778 456.334778,557.817871 
	C465.667053,543.546692 478.737396,535.833374 495.548523,533.403564 
	C500.942200,533.761475 505.894775,534.075439 511.147217,534.601562 
	C515.632751,536.187805 519.818420,537.561890 524.240662,539.170044 
	C526.685547,540.761719 528.893921,542.119324 531.331055,543.737671 
	C533.712952,545.976074 535.865906,547.953857 538.218262,550.196472 
	C540.242554,552.643188 542.067444,554.825012 543.992798,557.348022 
	C548.338562,566.569641 552.583862,575.450073 556.860474,584.705750 
	C558.316833,590.719055 559.741760,596.356995 561.214233,602.391113 
	C561.872925,607.190979 562.483948,611.594849 563.023621,616.443909 
	C562.284973,623.260193 561.617615,629.631226 560.748169,636.307312 
	C555.954590,646.381104 551.363098,656.149841 546.771606,665.918579 
z" />
	<path fill="#B00000" opacity="1.000000" stroke="none" d="
M532.823303,652.996094 
	C531.490723,659.493286 530.158081,665.990417 528.634460,672.795654 
	C524.944824,674.096313 521.232849,674.632385 517.980652,676.152222 
	C485.300537,691.424500 450.869812,700.028503 415.041382,703.086243 
	C354.356232,708.265564 296.592255,697.706848 242.171234,670.052185 
	C216.190186,656.849609 192.517700,640.302612 170.998001,620.593079 
	C131.590073,584.500122 103.707794,540.866455 85.838287,490.739441 
	C76.387245,464.227600 71.461403,436.689606 69.195480,408.677673 
	C69.033600,406.676453 70.040901,404.580688 70.758606,402.262512 
	C76.278313,407.441589 81.543968,412.886993 86.813278,419.014557 
	C86.747299,423.653290 85.902573,427.783020 86.741226,431.536652 
	C90.515358,448.428589 93.650887,465.581787 99.053467,481.969330 
	C116.106094,533.694763 145.254028,577.702087 186.186752,613.788208 
	C213.468704,637.839844 244.030685,656.567810 278.022736,669.433655 
	C319.198212,685.018372 361.690063,692.308105 405.875916,689.124573 
	C440.974640,686.595764 474.610443,678.547241 506.857941,664.570923 
	C515.552124,660.802856 524.170227,656.859192 532.823303,652.996094 
z" />
	<path fill="#010000" opacity="1.000000" stroke="none" d="
M519.705811,692.064819 
	C519.884644,692.527161 519.753845,693.135681 519.288940,693.920288 
	C519.101990,693.467896 519.249084,692.839478 519.705811,692.064819 
z" />
	<path fill="#AC0000" opacity="1.000000" stroke="none" d="
M495.107483,533.359741 
	C478.737396,535.833374 465.667053,543.546692 455.919861,557.832886 
	C452.487213,558.649963 449.629272,558.956299 446.992004,559.887512 
	C420.607971,569.204285 393.495575,572.054077 365.768219,568.915833 
	C326.271393,564.445618 291.709717,548.734863 262.503601,521.866821 
	C230.462677,492.390961 211.339539,455.851501 204.656708,412.779205 
	C204.287338,410.398560 202.363022,408.259155 201.162476,406.007477 
	C205.461060,395.579498 207.182999,384.901825 204.483475,373.150757 
	C205.450546,370.385254 206.643051,368.300140 206.927872,366.097656 
	C212.992538,319.203339 232.913376,279.356903 269.496246,249.227539 
	C324.006439,204.333344 385.162354,194.512985 451.731781,218.034210 
	C455.298737,219.294510 459.111664,219.858749 462.810089,220.746994 
	C470.384399,227.969711 479.086304,233.174393 489.804443,236.080597 
	C491.801392,238.283386 493.135406,240.257950 494.926147,241.641235 
	C509.113831,252.600311 522.036255,264.901794 532.316528,279.578125 
	C570.596985,334.228241 577.387939,393.050659 553.777222,455.167908 
	C542.650635,484.440979 523.405823,508.133484 499.356506,528.021729 
	C497.641571,529.440002 496.510193,531.563904 495.107483,533.359741 
M218.356659,355.952820 
	C217.641373,370.567566 215.658310,385.253052 216.469467,399.782593 
	C218.268051,431.999207 229.510666,461.175507 248.541656,487.273407 
	C266.203308,511.493500 288.812408,529.712830 316.014099,542.174744 
	C344.434143,555.194885 374.308105,559.363770 405.292297,556.098572 
	C449.250580,551.466003 485.749664,532.054565 514.880188,499.210052 
	C539.127625,471.871185 553.034119,439.708923 556.358826,403.120300 
	C559.374756,369.930237 554.152222,338.167786 538.651550,308.635376 
	C518.530884,270.300873 488.448822,242.483871 447.670349,227.139969 
	C400.724945,209.475601 354.067871,211.416321 309.549805,234.069702 
	C259.941040,259.313507 229.746964,300.382019 218.356659,355.952820 
z" />
	<path fill="#BE0000" opacity="1.000000" stroke="none" d="
M556.829163,584.330444 
	C552.583862,575.450073 548.338562,566.569641 544.336914,557.280884 
	C550.679199,551.022888 557.349365,545.657959 562.786072,539.247009 
	C606.592529,487.589996 625.629395,427.865326 618.963989,360.471191 
	C613.463989,304.861389 590.072327,257.422363 550.643921,217.889709 
	C548.704590,215.945236 546.153198,214.611298 543.886780,212.993073 
	C547.891907,204.391754 551.755920,195.753113 551.431274,185.566177 
	C555.653320,188.102859 559.790955,190.659393 563.286987,193.906647 
	C589.578491,218.327255 610.662048,246.602707 625.184509,279.502808 
	C638.491455,309.649048 646.468018,341.251434 647.853943,374.186401 
	C649.900574,422.822174 639.434326,468.814362 616.109314,511.644623 
	C600.917786,539.539978 581.428955,564.049255 556.829163,584.330444 
z" />
	<path fill="#AF0000" opacity="1.000000" stroke="none" d="
M547.153259,665.867737 
	C551.363098,656.149841 555.954590,646.381104 561.103882,636.233643 
	C564.410034,634.333008 567.383423,633.110840 569.871643,631.242493 
	C592.104492,614.548706 611.819153,595.313843 628.693970,573.150085 
	C667.161499,522.625854 688.535461,465.695099 691.816162,402.332062 
	C693.975098,360.634766 688.168823,319.888550 673.375000,280.623016 
	C657.766724,239.195770 634.723083,202.528778 603.540833,171.023010 
	C587.172668,154.485062 568.992737,140.241928 549.436829,127.686836 
	C547.382690,126.368050 545.733093,124.419212 543.895752,122.762711 
	C550.539124,120.620438 557.182556,118.478157 564.235535,116.321320 
	C584.666016,129.408386 602.834656,144.772232 619.406799,161.969299 
	C660.839478,204.964493 688.187073,255.636414 701.908875,313.765778 
	C707.564819,337.725952 710.742126,362.045868 710.671997,386.530029 
	C710.578979,418.980377 705.535156,450.918274 695.807800,481.980103 
	C683.526123,521.198914 664.917908,557.129333 638.911377,589.018433 
	C615.261047,618.018494 587.871094,642.908569 555.763733,662.364929 
	C553.247498,663.889709 550.288269,664.683411 547.153259,665.867737 
z" />
	<path fill="#B40000" opacity="1.000000" stroke="none" d="
M543.545166,122.838562 
	C545.733093,124.419212 547.382690,126.368050 549.436829,127.686836 
	C568.992737,140.241928 587.172668,154.485062 603.540833,171.023010 
	C634.723083,202.528778 657.766724,239.195770 673.375000,280.623016 
	C688.168823,319.888550 693.975098,360.634766 691.816162,402.332062 
	C688.535461,465.695099 667.161499,522.625854 628.693970,573.150085 
	C611.819153,595.313843 592.104492,614.548706 569.871643,631.242493 
	C567.383423,633.110840 564.410034,634.333008 561.305969,635.928589 
	C561.617615,629.631226 562.284973,623.260193 563.368591,616.368408 
	C565.811340,614.740784 568.060913,613.910950 569.830994,612.485718 
	C600.610107,587.703552 625.209106,557.748169 643.527649,522.792969 
	C668.244446,475.628571 679.878357,425.503113 677.117004,372.084717 
	C675.102051,333.107727 665.763062,296.103088 648.954102,260.970062 
	C626.843750,214.756073 594.796082,176.855484 552.672668,147.692474 
	C544.830139,142.262894 535.915161,138.382339 527.495117,133.786896 
	C532.728271,130.162735 537.961487,126.538589 543.545166,122.838562 
z" />
	<path fill="#B90000" opacity="1.000000" stroke="none" d="
M556.860474,584.705750 
	C581.428955,564.049255 600.917786,539.539978 616.109314,511.644623 
	C639.434326,468.814362 649.900574,422.822174 647.853943,374.186401 
	C646.468018,341.251434 638.491455,309.649048 625.184509,279.502808 
	C610.662048,246.602707 589.578491,218.327255 563.286987,193.906647 
	C559.790955,190.659393 555.653320,188.102859 551.490479,185.117004 
	C549.436401,177.600998 547.704712,170.194427 546.252136,162.346893 
	C548.713562,162.384430 551.447388,162.188614 552.989441,163.449921 
	C563.679749,172.194122 575.144592,180.306137 584.395447,190.418930 
	C597.048950,204.251434 609.084717,218.934464 619.414429,234.556107 
	C657.366394,291.950775 670.669861,355.354218 662.357910,423.358246 
	C657.874207,460.041504 645.947510,494.391479 627.253967,526.280518 
	C611.217896,553.636047 591.815430,578.272278 567.109802,598.429932 
	C565.338379,599.875183 563.157288,600.818359 561.166687,601.994995 
	C559.741760,596.356995 558.316833,590.719055 556.860474,584.705750 
z" />
	<path fill="#B60000" opacity="1.000000" stroke="none" d="
M91.201553,385.432953 
	C91.803261,317.982147 112.473602,257.513733 153.781387,204.523422 
	C183.989731,165.771637 221.787415,136.391571 266.852173,116.352547 
	C296.228027,103.289925 326.864319,95.386818 358.744537,92.318222 
	C403.723450,87.988831 447.433411,94.031967 489.811829,109.623238 
	C492.323761,110.547386 494.409698,112.629356 496.840759,114.467209 
	C492.532013,118.029343 488.076416,121.296814 483.133972,124.370834 
	C480.834412,123.087296 479.147095,121.630630 477.190430,120.961205 
	C437.709991,107.453682 397.193573,102.190147 355.709839,107.345573 
	C282.036224,116.501442 220.346756,148.727676 172.139572,205.444901 
	C135.920853,248.057312 114.723457,297.530548 107.776115,353.035126 
	C107.494011,355.288940 108.674561,357.725800 109.173645,360.077393 
	C105.035545,369.118225 102.615967,378.551544 103.276146,389.755737 
	C98.743858,388.190186 95.103577,386.932770 91.201553,385.432953 
z" />
	<path fill="#B60000" opacity="1.000000" stroke="none" d="
M561.214233,602.391113 
	C563.157288,600.818359 565.338379,599.875183 567.109802,598.429932 
	C591.815430,578.272278 611.217896,553.636047 627.253967,526.280518 
	C645.947510,494.391479 657.874207,460.041504 662.357910,423.358246 
	C670.669861,355.354218 657.366394,291.950775 619.414429,234.556107 
	C609.084717,218.934464 597.048950,204.251434 584.395447,190.418930 
	C575.144592,180.306137 563.679749,172.194122 552.989441,163.449921 
	C551.447388,162.188614 548.713562,162.384430 546.179199,161.980850 
	C540.306824,152.207703 532.692322,144.434525 520.650391,138.312622 
	C523.390503,136.467148 525.153137,135.279968 527.205444,133.939850 
	C535.915161,138.382339 544.830139,142.262894 552.672668,147.692474 
	C594.796082,176.855484 626.843750,214.756073 648.954102,260.970062 
	C665.763062,296.103088 675.102051,333.107727 677.117004,372.084717 
	C679.878357,425.503113 668.244446,475.628571 643.527649,522.792969 
	C625.209106,557.748169 600.610107,587.703552 569.830994,612.485718 
	C568.060913,613.910950 565.811340,614.740784 563.439941,615.923157 
	C562.483948,611.594849 561.872925,607.190979 561.214233,602.391113 
z" />
	<path fill="#BC0000" opacity="1.000000" stroke="none" d="
M182.942215,342.184082 
	C177.535141,339.861084 172.128067,337.538116 166.358337,334.668823 
	C166.479858,331.510284 166.774399,328.845917 167.476456,326.293640 
	C179.705765,281.834534 202.927322,244.161285 238.133972,214.333878 
	C292.418091,168.343842 355.070740,152.063309 425.060303,163.323013 
	C433.915192,164.747574 442.625397,167.071182 451.402649,168.978256 
	C450.592590,175.016647 449.782532,181.055023 448.536835,187.483002 
	C445.676056,187.280777 443.241058,186.726578 440.827332,186.091339 
	C414.612946,179.192322 388.070923,177.053284 361.125061,180.479492 
	C319.138733,185.818100 282.138092,202.245407 250.178070,230.053177 
	C227.471085,249.810059 209.504715,273.171631 197.642380,300.823730 
	C191.885681,314.243011 187.789917,328.374847 182.942215,342.184082 
z" />
	<path fill="#B90000" opacity="1.000000" stroke="none" d="
M109.459366,359.896545 
	C108.674561,357.725800 107.494011,355.288940 107.776115,353.035126 
	C114.723457,297.530548 135.920853,248.057312 172.139572,205.444901 
	C220.346756,148.727676 282.036224,116.501442 355.709839,107.345573 
	C397.193573,102.190147 437.709991,107.453682 477.190430,120.961205 
	C479.147095,121.630630 480.834412,123.087296 482.819336,124.457428 
	C479.552094,128.102539 476.112610,131.467621 472.091156,134.777969 
	C467.642853,133.232178 463.857574,131.467789 459.897339,130.293274 
	C428.072418,120.854576 395.572174,117.772598 362.572266,120.953156 
	C299.223236,127.058784 244.835678,152.962936 198.994293,196.726578 
	C184.659409,210.411743 172.534393,226.161377 161.957703,243.025391 
	C144.258850,271.245331 131.731995,301.545197 125.178696,334.227966 
	C124.688156,336.674347 125.819771,339.445984 126.197311,342.066437 
	C120.713242,347.949554 115.229164,353.832642 109.459366,359.896545 
z" />
	<path fill="#BE0000" opacity="1.000000" stroke="none" d="
M154.906891,333.745148 
	C150.626831,334.213440 146.346771,334.681732 141.490875,334.780823 
	C140.978271,331.475067 140.530563,328.418793 141.186157,325.621063 
	C146.156754,304.409210 154.327377,284.430359 164.790253,265.344421 
	C193.411804,213.134262 235.402863,175.630615 290.206421,152.849930 
	C343.928223,130.518875 399.154602,128.277878 455.200562,143.149948 
	C457.978271,143.887024 460.448730,145.782074 463.062256,147.137924 
	C460.521698,151.248871 457.981110,155.359802 454.895447,159.693420 
	C422.334747,150.426254 389.662659,146.830048 356.560699,151.331192 
	C280.108826,161.726959 221.910446,200.381485 181.748566,266.214264 
	C168.955429,287.184631 160.892578,310.057587 154.906891,333.745148 
z" />
	<path fill="#BC0000" opacity="1.000000" stroke="none" d="
M463.382660,146.999908 
	C460.448730,145.782074 457.978271,143.887024 455.200562,143.149948 
	C399.154602,128.277878 343.928223,130.518875 290.206421,152.849930 
	C235.402863,175.630615 193.411804,213.134262 164.790253,265.344421 
	C154.327377,284.430359 146.156754,304.409210 141.186157,325.621063 
	C140.530563,328.418793 140.978271,331.475067 141.076096,334.774261 
	C136.419464,337.330902 131.601761,339.524902 126.490685,341.892639 
	C125.819771,339.445984 124.688156,336.674347 125.178696,334.227966 
	C131.731995,301.545197 144.258850,271.245331 161.957703,243.025391 
	C172.534393,226.161377 184.659409,210.411743 198.994293,196.726578 
	C244.835678,152.962936 299.223236,127.058784 362.572266,120.953156 
	C395.572174,117.772598 428.072418,120.854576 459.897339,130.293274 
	C463.857574,131.467789 467.642853,133.232178 471.796967,134.940979 
	C469.290833,139.059799 466.496948,142.960861 463.382660,146.999908 
z" />
	<path fill="#B60000" opacity="1.000000" stroke="none" d="
M183.107498,342.472473 
	C187.789917,328.374847 191.885681,314.243011 197.642380,300.823730 
	C209.504715,273.171631 227.471085,249.810059 250.178070,230.053177 
	C282.138092,202.245407 319.138733,185.818100 361.125061,180.479492 
	C388.070923,177.053284 414.612946,179.192322 440.827332,186.091339 
	C443.241058,186.726578 445.676056,187.280777 448.481628,187.933136 
	C449.918488,193.024506 450.974884,198.055328 451.741333,203.580124 
	C449.188019,203.738876 446.839172,203.684479 444.674072,203.025970 
	C415.876007,194.266998 386.625732,191.728287 356.819885,196.386215 
	C278.133026,208.683075 214.917145,268.661377 198.312424,346.719574 
	C197.763550,349.299774 196.688660,351.768097 195.858978,354.288574 
	C191.663574,350.446014 187.468170,346.603455 183.107498,342.472473 
z" />
	<path fill="#B60000" opacity="1.000000" stroke="none" d="
M524.004089,538.936035 
	C519.818420,537.561890 515.632751,536.187805 511.285828,534.262085 
	C512.533020,531.876892 513.787781,529.895752 515.379578,528.238220 
	C519.633850,523.807983 524.253052,519.713440 528.340088,515.139587 
	C568.021423,470.732574 583.871643,418.716064 576.174683,359.914734 
	C570.200806,314.276398 549.432007,275.948242 515.452332,244.804626 
	C512.669922,242.254456 510.475311,239.062912 508.007568,236.169403 
	C512.426941,234.820694 516.846252,233.471985 521.710571,232.428726 
	C525.073059,236.292191 527.724304,240.114807 530.952515,243.364273 
	C548.753906,261.282684 562.827393,281.700836 572.897705,304.875061 
	C587.701721,338.942841 592.997070,374.452179 588.395447,411.281647 
	C582.532227,458.208221 562.681946,498.344849 528.989868,531.622314 
	C526.929749,533.657104 525.648010,536.479919 524.004089,538.936035 
z" />
	<path fill="#B00000" opacity="1.000000" stroke="none" d="
M195.912079,354.626343 
	C196.688660,351.768097 197.763550,349.299774 198.312424,346.719574 
	C214.917145,268.661377 278.133026,208.683075 356.819885,196.386215 
	C386.625732,191.728287 415.876007,194.266998 444.674072,203.025970 
	C446.839172,203.684479 449.188019,203.738876 451.772491,203.965027 
	C455.543304,209.278809 458.993073,214.701675 462.626465,220.435760 
	C459.111664,219.858749 455.298737,219.294510 451.731781,218.034210 
	C385.162354,194.512985 324.006439,204.333344 269.496246,249.227539 
	C232.913376,279.356903 212.992538,319.203339 206.927872,366.097656 
	C206.643051,368.300140 205.450546,370.385254 204.424530,372.759003 
	C201.433929,366.983368 198.699554,360.973755 195.912079,354.626343 
z" />
	<path fill="#890000" opacity="1.000000" stroke="none" d="
M543.598877,213.140900 
	C546.153198,214.611298 548.704590,215.945236 550.643921,217.889709 
	C590.072327,257.422363 613.463989,304.861389 618.963989,360.471191 
	C625.629395,427.865326 606.592529,487.589996 562.786072,539.247009 
	C557.349365,545.657959 550.679199,551.022888 544.236450,556.939636 
	C542.067444,554.825012 540.242554,552.643188 538.401611,549.921753 
	C554.709900,533.791626 569.019714,516.637268 580.200623,496.905853 
	C608.705872,446.601227 616.460327,392.961151 604.947632,336.700775 
	C597.257141,299.118591 580.191711,265.790955 554.654175,236.980728 
	C549.472473,231.135056 544.165100,225.400879 538.915649,219.615295 
	C540.380798,217.506439 541.845886,215.397598 543.598877,213.140900 
z" />
	<path fill="#890000" opacity="1.000000" stroke="none" d="
M155.346100,333.814148 
	C160.892578,310.057587 168.955429,287.184631 181.748566,266.214264 
	C221.910446,200.381485 280.108826,161.726959 356.560699,151.331192 
	C389.662659,146.830048 422.334747,150.426254 454.736298,159.995331 
	C454.016052,162.867386 452.909882,165.660202 451.603210,168.715637 
	C442.625397,167.071182 433.915192,164.747574 425.060303,163.323013 
	C355.070740,152.063309 292.418091,168.343842 238.133972,214.333878 
	C202.927322,244.161285 179.705765,281.834534 167.476456,326.293640 
	C166.774399,328.845917 166.479858,331.510284 166.009201,334.535034 
	C162.610245,334.592804 159.197784,334.237976 155.346100,333.814148 
z" />
	<path fill="#B00000" opacity="1.000000" stroke="none" d="
M507.590698,236.110077 
	C510.475311,239.062912 512.669922,242.254456 515.452332,244.804626 
	C549.432007,275.948242 570.200806,314.276398 576.174683,359.914734 
	C583.871643,418.716064 568.021423,470.732574 528.340088,515.139587 
	C524.253052,519.713440 519.633850,523.807983 515.379578,528.238220 
	C513.787781,529.895752 512.533020,531.876892 510.985962,534.049927 
	C505.894775,534.075439 500.942200,533.761475 495.548523,533.403564 
	C496.510193,531.563904 497.641571,529.440002 499.356506,528.021729 
	C523.405823,508.133484 542.650635,484.440979 553.777222,455.167908 
	C577.387939,393.050659 570.596985,334.228241 532.316528,279.578125 
	C522.036255,264.901794 509.113831,252.600311 494.926147,241.641235 
	C493.135406,240.257950 491.801392,238.283386 490.125916,236.266388 
	C495.721954,235.983582 501.447906,236.017181 507.590698,236.110077 
z" />
	<path fill="#BD0000" opacity="1.000000" stroke="none" d="
M538.605896,219.767700 
	C544.165100,225.400879 549.472473,231.135056 554.654175,236.980728 
	C580.191711,265.790955 597.257141,299.118591 604.947632,336.700775 
	C616.460327,392.961151 608.705872,446.601227 580.200623,496.905853 
	C569.019714,516.637268 554.709900,533.791626 538.202271,549.656860 
	C535.865906,547.953857 533.712952,545.976074 531.663147,543.518372 
	C538.935547,535.416260 546.716248,528.276489 553.171875,520.091614 
	C587.641235,476.389374 603.661316,426.486511 599.653687,371.024414 
	C595.810730,317.841888 574.083374,272.250244 536.712891,234.147919 
	C534.533264,231.925674 532.830688,229.235626 530.906128,226.763260 
	C533.369446,224.482208 535.832764,222.201157 538.605896,219.767700 
z" />
	<path fill="#B90000" opacity="1.000000" stroke="none" d="
M530.574219,226.874512 
	C532.830688,229.235626 534.533264,231.925674 536.712891,234.147919 
	C574.083374,272.250244 595.810730,317.841888 599.653687,371.024414 
	C603.661316,426.486511 587.641235,476.389374 553.171875,520.091614 
	C546.716248,528.276489 538.935547,535.416260 531.434326,543.257690 
	C528.893921,542.119324 526.685547,540.761719 524.240662,539.170044 
	C525.648010,536.479919 526.929749,533.657104 528.989868,531.622314 
	C562.681946,498.344849 582.532227,458.208221 588.395447,411.281647 
	C592.997070,374.452179 587.701721,338.942841 572.897705,304.875061 
	C562.827393,281.700836 548.753906,261.282684 530.952515,243.364273 
	C527.724304,240.114807 525.073059,236.292191 522.078796,232.391632 
	C524.748901,230.361298 527.495605,228.673523 530.574219,226.874512 
z" />
	<path fill="#B40000" opacity="1.000000" stroke="none" d="
M532.891235,652.537170 
	C524.170227,656.859192 515.552124,660.802856 506.857941,664.570923 
	C474.610443,678.547241 440.974640,686.595764 405.875916,689.124573 
	C361.690063,692.308105 319.198212,685.018372 278.022736,669.433655 
	C244.030685,656.567810 213.468704,637.839844 186.186752,613.788208 
	C145.254028,577.702087 116.106094,533.694763 99.053467,481.969330 
	C93.650887,465.581787 90.515358,448.428589 86.741226,431.536652 
	C85.902573,427.783020 86.747299,423.653290 86.970047,419.312988 
	C93.299759,422.047638 99.476364,425.166077 105.760849,428.967896 
	C105.917877,432.287415 105.551826,435.012024 106.091400,437.543640 
	C107.964455,446.331848 109.875618,455.129364 112.265816,463.787079 
	C125.309525,511.033813 149.464401,551.993469 183.623688,586.910828 
	C200.536057,604.198486 219.548187,619.058533 240.565674,631.310669 
	C290.819305,660.606140 344.732941,674.494141 402.990051,671.108948 
	C444.903076,668.673523 484.229645,657.244629 521.263977,637.725891 
	C524.684753,635.922974 527.405579,632.792053 530.451477,630.277771 
	C531.287354,637.544617 532.123230,644.811401 532.891235,652.537170 
z" />
	<path fill="#B90000" opacity="1.000000" stroke="none" d="
M530.380493,629.922485 
	C527.405579,632.792053 524.684753,635.922974 521.263977,637.725891 
	C484.229645,657.244629 444.903076,668.673523 402.990051,671.108948 
	C344.732941,674.494141 290.819305,660.606140 240.565674,631.310669 
	C219.548187,619.058533 200.536057,604.198486 183.623688,586.910828 
	C149.464401,551.993469 125.309525,511.033813 112.265816,463.787079 
	C109.875618,455.129364 107.964455,446.331848 106.091400,437.543640 
	C105.551826,435.012024 105.917877,432.287415 105.954063,429.269531 
	C113.389305,430.639008 120.739220,432.390167 128.188660,434.563538 
	C127.922592,437.796997 126.729828,440.793884 127.312851,443.392334 
	C140.397705,501.709778 169.679214,550.401733 215.098541,589.216919 
	C238.862976,609.526001 265.592255,624.938599 295.024750,635.627258 
	C354.577911,657.254456 414.288116,657.604370 474.136261,637.003418 
	C476.678802,636.128174 478.819824,634.086365 481.147858,632.587952 
	C487.087433,633.640381 492.989471,635.117432 498.975281,635.647156 
	C508.298035,636.472290 516.854187,633.496216 525.098633,629.300476 
	C526.442322,628.616699 528.553162,629.440308 530.380493,629.922485 
z" />
	<path fill="#BC0000" opacity="1.000000" stroke="none" d="
M448.924683,580.006042 
	C449.706055,586.730347 450.487457,593.454651 450.896210,600.603027 
	C448.412170,601.481262 446.273132,601.834717 444.193451,602.404785 
	C413.031006,610.946960 381.273987,613.152039 349.633972,607.366089 
	C264.081329,591.721313 205.206039,542.907288 173.342957,461.930603 
	C169.962952,453.340698 168.418518,444.028534 166.022522,435.051392 
	C172.404663,432.070374 178.786819,429.089325 185.710709,426.294373 
	C187.324509,429.610596 188.620590,432.683685 189.434387,435.879578 
	C198.781540,472.587311 216.883011,504.397369 243.680176,531.034973 
	C265.857544,553.080261 292.092865,568.907471 321.705872,579.071106 
	C342.699585,586.276550 364.443237,589.673096 386.481873,589.754333 
	C407.684906,589.832520 428.592957,586.352661 448.924683,580.006042 
z" />
	<path fill="#BD0000" opacity="1.000000" stroke="none" d="
M480.902222,632.355835 
	C478.819824,634.086365 476.678802,636.128174 474.136261,637.003418 
	C414.288116,657.604370 354.577911,657.254456 295.024750,635.627258 
	C265.592255,624.938599 238.862976,609.526001 215.098541,589.216919 
	C169.679214,550.401733 140.397705,501.709778 127.312851,443.392334 
	C126.729828,440.793884 127.922592,437.796997 128.579102,434.699585 
	C132.956985,434.893158 137.043961,435.372803 141.601654,436.363647 
	C143.143021,441.923950 143.931534,447.052582 145.328110,452.009888 
	C158.962509,500.406830 184.128937,541.631531 222.166885,574.748596 
	C268.271179,614.888550 322.416321,634.709656 383.042633,636.775452 
	C407.258148,637.600586 431.204742,633.551147 454.582703,626.918579 
	C458.392395,625.837708 462.005524,624.063965 465.709503,622.610474 
	C470.691895,625.781555 475.674255,628.952637 480.902222,632.355835 
z" />
	<path fill="#B20000" opacity="1.000000" stroke="none" d="
M449.053711,579.625916 
	C428.592957,586.352661 407.684906,589.832520 386.481873,589.754333 
	C364.443237,589.673096 342.699585,586.276550 321.705872,579.071106 
	C292.092865,568.907471 265.857544,553.080261 243.680176,531.034973 
	C216.883011,504.397369 198.781540,472.587311 189.434387,435.879578 
	C188.620590,432.683685 187.324509,429.610596 186.033539,426.182007 
	C190.849716,419.482086 195.884781,413.080566 201.041153,406.343262 
	C202.363022,408.259155 204.287338,410.398560 204.656708,412.779205 
	C211.339539,455.851501 230.462677,492.390961 262.503601,521.866821 
	C291.709717,548.734863 326.271393,564.445618 365.768219,568.915833 
	C393.495575,572.054077 420.607971,569.204285 446.992004,559.887512 
	C449.629272,558.956299 452.487213,558.649963 455.657654,558.038696 
	C453.775970,565.097778 451.479370,572.171753 449.053711,579.625916 
z" />
	<path fill="#BE0000" opacity="1.000000" stroke="none" d="
M465.499023,622.332581 
	C462.005524,624.063965 458.392395,625.837708 454.582703,626.918579 
	C431.204742,633.551147 407.258148,637.600586 383.042633,636.775452 
	C322.416321,634.709656 268.271179,614.888550 222.166885,574.748596 
	C184.128937,541.631531 158.962509,500.406830 145.328110,452.009888 
	C143.931534,447.052582 143.143021,441.923950 142.036484,436.469757 
	C145.993164,436.121735 149.985718,436.178772 154.545853,436.630859 
	C155.405548,437.980286 155.746216,438.922821 155.982758,439.890808 
	C167.157181,485.616089 189.844070,524.644592 224.207199,556.815308 
	C263.110107,593.236145 309.326538,614.322876 362.145020,619.510864 
	C393.610840,622.601624 425.029968,619.937134 455.371521,609.704590 
	C458.677185,613.821289 461.982880,617.937988 465.499023,622.332581 
z" />
	<path fill="#890000" opacity="1.000000" stroke="none" d="
M455.270508,609.368042 
	C425.029968,619.937134 393.610840,622.601624 362.145020,619.510864 
	C309.326538,614.322876 263.110107,593.236145 224.207199,556.815308 
	C189.844070,524.644592 167.157181,485.616089 155.982758,439.890808 
	C155.746216,438.922821 155.405548,437.980286 155.000336,436.675537 
	C158.321518,435.906250 161.755768,435.487335 165.606277,435.059937 
	C168.418518,444.028534 169.962952,453.340698 173.342957,461.930603 
	C205.206039,542.907288 264.081329,591.721313 349.633972,607.366089 
	C381.273987,613.152039 413.031006,610.946960 444.193451,602.404785 
	C446.273132,601.834717 448.412170,601.481262 450.951141,601.017822 
	C452.642303,603.682861 453.905914,606.357117 455.270508,609.368042 
z" />
	<path fill="#A90000" opacity="1.000000" stroke="none" d="
M218.431274,355.526703 
	C229.746964,300.382019 259.941040,259.313507 309.549805,234.069702 
	C354.067871,211.416321 400.724945,209.475601 447.670349,227.139969 
	C488.448822,242.483871 518.530884,270.300873 538.651550,308.635376 
	C554.152222,338.167786 559.374756,369.930237 556.358826,403.120300 
	C553.034119,439.708923 539.127625,471.871185 514.880188,499.210052 
	C485.749664,532.054565 449.250580,551.466003 405.292297,556.098572 
	C374.308105,559.363770 344.434143,555.194885 316.014099,542.174744 
	C288.812408,529.712830 266.203308,511.493500 248.541656,487.273407 
	C229.510666,461.175507 218.268051,431.999207 216.469467,399.782593 
	C215.658310,385.253052 217.641373,370.567566 218.431274,355.526703 
M544.939331,357.608429 
	C541.601257,339.056671 535.234619,321.617218 525.656555,305.374786 
	C508.847290,276.869781 485.480652,255.404633 455.748901,240.986252 
	C427.014282,227.051407 396.477417,222.802032 365.134064,227.147873 
	C308.215759,235.039764 266.254028,265.541229 241.555847,316.887848 
	C217.203156,367.516205 219.709976,418.776489 247.628860,467.855774 
	C264.592621,497.676758 289.420227,519.394775 320.777100,533.530212 
	C342.891418,543.499084 366.016235,547.571533 390.285126,547.116638 
	C438.407135,546.214661 477.924683,526.880371 508.949799,490.982910 
	C541.879395,452.881927 552.518250,407.951630 544.939331,357.608429 
z" />
	<path fill="#A40000" opacity="1.000000" stroke="none" d="
M545.006836,358.036377 
	C552.518250,407.951630 541.879395,452.881927 508.949799,490.982910 
	C477.924683,526.880371 438.407135,546.214661 390.285126,547.116638 
	C366.016235,547.571533 342.891418,543.499084 320.777100,533.530212 
	C289.420227,519.394775 264.592621,497.676758 247.628860,467.855774 
	C219.709976,418.776489 217.203156,367.516205 241.555847,316.887848 
	C266.254028,265.541229 308.215759,235.039764 365.134064,227.147873 
	C396.477417,222.802032 427.014282,227.051407 455.748901,240.986252 
	C485.480652,255.404633 508.847290,276.869781 525.656555,305.374786 
	C535.234619,321.617218 541.601257,339.056671 545.006836,358.036377 
M441.762756,525.290771 
	C479.925568,509.562317 507.582764,482.921967 523.855103,444.988434 
	C536.572205,415.342651 539.549133,384.617340 532.033569,353.012451 
	C524.636963,321.907837 509.138763,295.813446 485.179901,274.545868 
	C459.083099,251.380524 428.459259,238.709946 393.981842,237.287506 
	C346.735992,235.338257 306.683746,252.159958 274.786041,287.610413 
	C251.561600,313.421570 238.908768,343.931641 237.322006,378.204163 
	C235.003006,428.291992 253.128204,470.705048 292.364502,502.145599 
	C336.990265,537.904846 387.159454,545.212769 441.762756,525.290771 
z" />
	<path fill="#9F0000" opacity="1.000000" stroke="none" d="
M441.405090,525.433838 
	C387.159454,545.212769 336.990265,537.904846 292.364502,502.145599 
	C253.128204,470.705048 235.003006,428.291992 237.322006,378.204163 
	C238.908768,343.931641 251.561600,313.421570 274.786041,287.610413 
	C306.683746,252.159958 346.735992,235.338257 393.981842,237.287506 
	C428.459259,238.709946 459.083099,251.380524 485.179901,274.545868 
	C509.138763,295.813446 524.636963,321.907837 532.033569,353.012451 
	C539.549133,384.617340 536.572205,415.342651 523.855103,444.988434 
	C507.582764,482.921967 479.925568,509.562317 441.405090,525.433838 
M518.705200,350.828247 
	C511.438354,323.209076 496.751251,300.070648 474.941559,281.920319 
	C446.638184,258.365845 413.882660,247.176987 376.834625,249.957031 
	C338.336670,252.845901 306.258942,269.046112 281.595093,298.526306 
	C258.093964,326.616760 247.176102,359.386353 249.963120,396.236908 
	C252.918350,435.311523 269.564697,467.617859 299.745361,492.385345 
	C327.961914,515.540894 360.685272,526.041809 397.284698,523.004333 
	C432.633850,520.070618 463.006958,505.987183 486.768555,479.601685 
	C519.897827,442.814209 530.883850,399.980713 518.705200,350.828247 
z" />
	<path fill="#9A0000" opacity="1.000000" stroke="none" d="
M518.804443,351.225830 
	C530.883850,399.980713 519.897827,442.814209 486.768555,479.601685 
	C463.006958,505.987183 432.633850,520.070618 397.284698,523.004333 
	C360.685272,526.041809 327.961914,515.540894 299.745361,492.385345 
	C269.564697,467.617859 252.918350,435.311523 249.963120,396.236908 
	C247.176102,359.386353 258.093964,326.616760 281.595093,298.526306 
	C306.258942,269.046112 338.336670,252.845901 376.834625,249.957031 
	C413.882660,247.176987 446.638184,258.365845 474.941559,281.920319 
	C496.751251,300.070648 511.438354,323.209076 518.804443,351.225830 
M275.828339,329.349945 
	C248.454071,382.572968 263.359283,445.175934 305.515503,481.150635 
	C357.718597,525.699097 436.330719,519.597107 480.925079,467.713013 
	C525.808960,415.492126 519.645386,336.564117 467.574554,291.960327 
	C406.907166,239.992844 312.830200,257.941620 275.828339,329.349945 
z" />
	<path fill="#950000" opacity="1.000000" stroke="none" d="
M275.994934,329.018372 
	C312.830200,257.941620 406.907166,239.992844 467.574554,291.960327 
	C519.645386,336.564117 525.808960,415.492126 480.925079,467.713013 
	C436.330719,519.597107 357.718597,525.699097 305.515503,481.150635 
	C263.359283,445.175934 248.454071,382.572968 275.994934,329.018372 
M420.963226,281.487335 
	C375.892120,267.458496 329.282440,281.287018 300.360352,317.268677 
	C262.068390,364.907318 269.700836,434.531097 317.404968,472.751312 
	C372.677704,517.035461 455.019836,498.544739 486.050293,434.880371 
	C515.180115,375.115509 484.996460,303.262146 420.963226,281.487335 
z" />
	<path fill="#8F0000" opacity="1.000000" stroke="none" d="
M421.340820,281.611633 
	C484.996460,303.262146 515.180115,375.115509 486.050293,434.880371 
	C455.019836,498.544739 372.677704,517.035461 317.404968,472.751312 
	C269.700836,434.531097 262.068390,364.907318 300.360352,317.268677 
	C329.282440,281.287018 375.892120,267.458496 421.340820,281.611633 
M300.155365,425.306793 
	C305.619415,437.044312 312.471161,447.862946 322.313599,456.407867 
	C342.129517,473.611572 364.931396,482.400513 391.519958,481.074890 
	C416.792297,479.814880 438.191864,469.867950 455.262726,451.804779 
	C472.975952,433.061920 481.922089,410.423309 481.090179,384.109039 
	C480.207214,356.181366 469.387268,333.034668 448.466339,314.904785 
	C408.305267,280.101685 348.354218,285.047150 315.027527,324.617218 
	C289.814545,354.553497 285.106720,388.284393 300.155365,425.306793 
z" />
	<path fill="#890000" opacity="1.000000" stroke="none" d="
M299.989258,424.968811 
	C285.106720,388.284393 289.814545,354.553497 315.027527,324.617218 
	C348.354218,285.047150 408.305267,280.101685 448.466339,314.904785 
	C469.387268,333.034668 480.207214,356.181366 481.090179,384.109039 
	C481.922089,410.423309 472.975952,433.061920 455.262726,451.804779 
	C438.191864,469.867950 416.792297,479.814880 391.519958,481.074890 
	C364.931396,482.400513 342.129517,473.611572 322.313599,456.407867 
	C312.471161,447.862946 305.619415,437.044312 299.989258,424.968811 
M465.870117,397.267181 
	C465.960266,390.977875 466.677490,384.624298 466.040680,378.409485 
	C461.224915,331.410736 418.283173,301.040466 375.882416,307.131165 
	C356.737366,309.881287 340.031982,318.037140 327.338959,332.562469 
	C303.123077,360.273956 299.392883,394.007568 317.278320,426.167084 
	C332.458252,453.461823 357.199951,466.813232 387.759521,466.622253 
	C427.535522,466.373627 459.061554,437.608704 465.870117,397.267181 
z" />
	<path fill="#820000" opacity="1.000000" stroke="none" d="
M465.816437,397.703491 
	C459.061554,437.608704 427.535522,466.373627 387.759521,466.622253 
	C357.199951,466.813232 332.458252,453.461823 317.278320,426.167084 
	C299.392883,394.007568 303.123077,360.273956 327.338959,332.562469 
	C340.031982,318.037140 356.737366,309.881287 375.882416,307.131165 
	C418.283173,301.040466 461.224915,331.410736 466.040680,378.409485 
	C466.677490,384.624298 465.960266,390.977875 465.816437,397.703491 
M411.623260,326.808136 
	C410.859863,326.475494 410.103577,326.125244 409.332001,325.812805 
	C383.343597,315.289612 354.679565,322.260773 336.200073,343.595184 
	C318.787048,363.698303 316.066162,393.600098 329.527313,416.926880 
	C343.184967,440.594208 370.382629,452.999146 397.304474,447.840302 
	C424.231110,442.680542 444.506073,420.839355 448.541534,392.645203 
	C452.314026,366.288208 437.825500,340.072784 411.623260,326.808136 
z" />
	<path fill="#000000" opacity="1.000000" stroke="none" d="
M411.969879,326.954041 
	C437.825500,340.072784 452.314026,366.288208 448.541534,392.645203 
	C444.506073,420.839355 424.231110,442.680542 397.304474,447.840302 
	C370.382629,452.999146 343.184967,440.594208 329.527313,416.926880 
	C316.066162,393.600098 318.787048,363.698303 336.200073,343.595184 
	C354.679565,322.260773 383.343597,315.289612 409.332001,325.812805 
	C410.103577,326.125244 410.859863,326.475494 411.969879,326.954041 
z" />
</svg>