<svg version="1.0" xmlns="http://www.w3.org/2000/svg" width="1472.000000pt" height="832.000000pt"
        viewBox="0 0 1472.000000 832.000000">

        <g transform="translate(0.000000,832.000000) scale(0.100000,-0.100000)" fill="#A40000" stroke="none">

                <path fill="#6f7d87" d="M7615 6894 c-16 -2 -66 -9 -110 -15 -106 -13 -267 -52 -371 -89 -404
-142 -774 -444 -990 -808 -1 -2 -35 12 -76 31 -88 42 -138 49 -238 36 -201
-27 -377 -174 -495 -413 l-30 -61 -110 -7 c-121 -7 -254 -35 -385 -80 -102
-36 -309 -141 -353 -181 l-32 -28 40 6 c59 9 349 24 430 23 l70 -1 -60 -7
c-33 -4 -48 -7 -33 -8 14 -1 28 -7 30 -13 4 -13 58 -13 158 -1 41 5 91 8 110
6 23 -3 29 -1 17 4 -21 9 120 6 145 -3 9 -4 23 -3 30 1 22 14 127 24 268 26
111 2 125 3 80 10 -30 4 -82 5 -115 3 -33 -3 -73 -1 -90 4 -28 9 140 9 355 0
l65 -2 -60 -7 -60 -7 50 0 c88 -1 170 11 167 25 -1 9 24 12 102 12 97 0 106 2
120 22 9 12 16 18 16 13 0 -6 9 3 19 19 11 17 17 35 14 40 -4 6 2 4 12 -4 17
-14 18 -14 6 9 -11 19 -11 22 0 16 9 -6 11 -3 6 9 -4 10 -3 15 3 11 5 -3 20
10 32 29 13 20 29 36 36 36 9 0 11 7 7 21 -5 15 -4 19 4 15 6 -4 19 6 29 23 9
17 23 31 30 31 6 0 12 4 12 8 0 13 80 95 112 116 15 10 25 23 21 29 -3 5 -1 7
4 4 6 -4 24 6 40 21 60 54 104 83 240 152 29 15 49 30 46 34 -4 4 1 4 11 0 15
-6 17 -4 11 6 -5 8 -4 11 3 6 6 -4 28 1 49 10 21 9 61 22 88 30 28 8 59 19 70
24 11 5 76 22 145 37 119 27 137 28 365 27 220 -1 300 -8 410 -33 90 -21 212
-59 245 -77 19 -11 62 -28 95 -38 75 -23 117 -44 110 -55 -3 -5 5 -7 17 -3 14
3 19 1 14 -6 -5 -8 -2 -10 8 -6 9 3 16 1 16 -5 0 -6 14 -18 31 -26 20 -11 29
-22 25 -31 -5 -12 -2 -12 15 -3 17 9 20 8 14 -2 -6 -9 -3 -10 11 -5 10 4 16 4
12 1 -10 -10 34 -56 49 -51 7 3 10 -1 6 -10 -3 -8 -1 -14 5 -12 16 5 102 -71
102 -89 0 -9 3 -14 6 -11 12 13 108 -110 184 -234 49 -82 55 -87 94 -94 22 -4
55 -7 71 -7 17 1 22 -1 12 -4 -34 -9 -5 -23 49 -23 34 0 53 -4 49 -10 -3 -5 3
-10 14 -10 12 0 21 5 21 10 0 6 19 9 43 9 l42 -2 -40 -7 c-30 -5 -15 -8 65
-10 58 -2 130 -3 160 -2 35 2 50 -1 42 -6 -10 -7 -5 -9 15 -9 53 0 257 -13
438 -27 524 -43 727 -46 761 -11 17 17 17 17 -6 11 -22 -6 -23 -6 -6 5 13 8
46 10 97 6 44 -3 79 -2 79 1 0 10 -230 180 -318 237 -96 62 -254 136 -372 175
-202 67 -428 76 -620 26 -52 -14 -95 -24 -96 -23 0 1 -28 56 -60 122 -241 484
-665 846 -1179 1004 -182 56 -357 82 -570 86 -104 2 -203 1 -220 -1z m-1890
-934 c-3 -5 -11 -10 -16 -10 -6 0 -7 5 -4 10 3 6 11 10 16 10 6 0 7 -4 4 -10z
m805 -96 c-21 -24 -47 -35 -47 -19 0 7 6 11 12 8 7 -2 15 3 18 11 4 9 12 16
18 16 8 0 8 -5 -1 -16z m-447 -36 c4 -13 14 -14 235 -17 71 -1 82 -3 83 -18 0
-12 4 -8 11 10 5 15 14 27 19 27 13 0 11 -18 -3 -23 -7 -2 -10 -7 -6 -11 3 -4
19 1 35 11 26 17 25 14 -11 -30 -21 -26 -42 -45 -45 -41 -3 3 3 12 13 20 11 8
15 14 9 14 -7 0 -14 -4 -18 -10 -3 -5 -13 -6 -23 -3 -16 6 -16 6 1 -11 18 -19
22 -32 9 -38 -11 -4 -95 -130 -151 -225 l-43 -73 -127 0 c-237 0 -1323 -43
-1403 -56 -157 -24 206 117 382 149 72 13 194 25 278 27 12 0 22 5 22 12 0 6
18 49 41 94 48 99 101 158 144 161 17 1 46 5 65 9 19 4 99 9 178 11 78 2 142
9 142 14 0 14 158 11 163 -3z m2790 -28 c-7 8 -13 19 -13 25 1 5 10 -1 21 -15
13 -15 32 -25 50 -25 29 -1 39 10 17 17 -31 11 149 17 219 8 122 -15 294 -17
289 -3 -8 20 6 23 35 7 16 -8 29 -11 29 -7 1 9 61 -106 64 -122 5 -22 30 -65
37 -65 4 0 50 14 101 31 205 70 502 44 736 -62 34 -16 66 -29 69 -29 29 0 361
-216 349 -227 -2 -3 -76 0 -163 6 -289 20 -1358 70 -1515 71 l-58 0 -60 91
c-33 50 -57 96 -53 103 3 6 3 8 -2 4 -9 -9 -115 119 -111 135 1 7 1 8 -2 4 -5
-10 -92 72 -92 87 0 5 15 -3 33 -20 17 -16 26 -22 20 -14z m-3040 -457 c-7 -2
-19 -2 -25 0 -7 3 -2 5 12 5 14 0 19 -2 13 -5z m107 -3 c20 -6 21 -8 5 -8 -11
0 -33 4 -50 8 -27 7 -27 8 -5 8 14 0 36 -4 50 -8z m3337 -6 c-3 -3 -12 -4 -19
-1 -8 3 -5 6 6 6 11 1 17 -2 13 -5z m-3920 -10 c-3 -3 -12 -4 -19 -1 -8 3 -5
6 6 6 11 1 17 -2 13 -5z m-249 -11 c-10 -2 -26 -2 -35 0 -10 3 -2 5 17 5 19 0
27 -2 18 -5z m9 -19 c-3 -3 -12 -4 -19 -1 -8 3 -5 6 6 6 11 1 17 -2 13 -5z" />
                <path fill="#A40000" d="M7555 5039 c-88 -45 -170 -90 -182 -101 -34 -32 -92 -200 -373 -1078
-82 -256 -95 -284 -145 -329 -21 -18 -35 -34 -33 -37 3 -2 103 -5 222 -7 244
-2 225 -8 252 81 l16 52 166 -2 166 -3 20 -57 c23 -64 20 -62 174 -74 45 -4
82 -11 82 -15 0 -5 28 -9 63 -9 44 0 58 3 47 10 -11 7 6 10 55 11 426 5 524 7
534 13 8 5 2 20 -18 45 -52 65 -55 80 -59 335 -4 240 2 346 18 346 5 0 7 -6 4
-13 -3 -8 5 -25 16 -38 l21 -24 -17 30 c-43 73 27 -20 151 -201 217 -317 289
-421 313 -446 16 -18 44 -31 78 -39 29 -7 51 -15 49 -19 -3 -5 1 -10 9 -13 24
-9 278 1 285 11 3 6 20 12 36 14 l30 3 3 797 2 797 -42 5 c-63 8 -618 14 -618
7 0 -4 34 -40 76 -81 42 -41 97 -104 122 -140 l47 -64 3 -191 c2 -104 2 -221
0 -259 l-3 -70 -85 125 c-47 68 -157 232 -245 364 -181 271 -204 294 -318 314
-63 11 -497 16 -497 6 0 -13 57 -117 118 -215 36 -58 76 -130 89 -160 l23 -55
0 -545 c0 -300 -4 -551 -9 -559 -7 -11 -11 -10 -19 5 -11 22 -106 334 -151
499 -16 61 -85 304 -152 540 -67 237 -126 449 -131 473 -5 23 -15 42 -21 42
-7 -1 -84 -37 -172 -81z m-6 -956 c17 -56 31 -107 31 -113 0 -6 -33 -10 -85
-10 -100 0 -98 -5 -59 117 16 50 30 80 37 76 6 -3 7 -1 3 6 -4 6 0 18 8 27 9
8 16 20 16 27 0 6 -6 2 -14 -9 -13 -17 -13 -15 -3 18 l12 37 11 -37 c7 -20 26
-83 43 -139z" />
                <path fill="#a9b3bc" d="M6580 5099 c-239 -3 -477 -7 -527 -8 l-93 -1 0 -744 c0 -529 -3 -753
-11 -777 -7 -19 -22 -48 -35 -66 -13 -17 -24 -35 -24 -38 0 -4 79 -6 175 -3
113 2 176 0 179 -7 3 -6 8 -5 13 2 6 8 46 13 113 15 l105 3 3 241 2 241 42 7
c32 5 39 9 28 16 -10 6 29 10 112 10 70 0 129 4 133 9 15 26 80 221 110 337
34 125 44 214 26 214 -10 0 -52 -30 -123 -89 -76 -63 -144 -91 -234 -98 -59
-5 -78 -3 -85 8 -12 20 -11 300 2 337 6 18 17 30 27 30 9 0 133 3 274 8 l257
7 65 165 c37 90 66 171 66 178 0 11 -18 14 -82 12 -46 -1 -279 -5 -518 -9z" />
                <path fill="#a9b3bc" d="M5292 5080 c-111 -4 -205 -10 -209 -13 -3 -4 14 -26 39 -49 89 -83
93 -99 96 -373 2 -132 2 -271 0 -310 l-3 -70 -73 99 c-41 54 -144 204 -230
334 -85 131 -171 256 -189 280 -70 86 -143 101 -426 87 l-145 -7 -11 -86 c-27
-215 -29 -198 28 -276 83 -112 81 -97 81 -685 -1 -537 -3 -564 -44 -610 -9
-10 -16 -22 -16 -27 0 -10 173 -2 368 17 124 12 142 20 105 50 -40 33 -43 66
-42 401 0 178 3 316 7 307 4 -9 15 -15 24 -14 10 2 15 -2 12 -9 -3 -7 2 -19
11 -26 13 -11 15 -10 9 6 -12 32 57 -63 196 -271 209 -314 253 -364 337 -380
21 -4 41 -9 45 -11 13 -8 268 -10 268 -2 0 4 28 8 63 10 l62 3 5 755 c5 805 5
798 53 839 10 7 17 20 17 27 0 16 -75 16 -438 4z" />
                <path fill="#A40000" d="M9590 5076 c0 -8 10 -20 21 -27 35 -18 109 -90 139 -134 55 -81 54
-70 51 -729 -2 -364 -7 -620 -13 -635 -5 -14 -18 -36 -29 -47 -11 -12 -17 -24
-12 -27 11 -6 163 -21 187 -18 10 1 16 -2 12 -7 -3 -5 14 -15 39 -21 55 -14
262 -15 270 -1 3 6 26 10 51 10 24 0 44 3 44 8 0 4 -7 29 -15 56 -13 42 -15
156 -15 736 0 714 0 723 43 783 10 16 17 30 14 33 -2 3 -128 9 -278 14 -151 5
-327 12 -391 15 -102 5 -118 4 -118 -9z" />
                <path fill="#A40000" d="M10569 5053 c0 -5 -1 -343 -2 -753 l-2 -745 -23 -37 c-13 -20 -32
-40 -43 -43 -36 -12 -14 -29 50 -41 60 -10 96 -34 68 -43 -16 -6 147 -39 195
-40 20 -1 40 4 43 10 4 6 14 8 22 5 8 -3 11 -1 8 4 -3 6 1 10 10 10 9 0 13 5
10 10 -3 6 2 10 12 10 17 0 18 17 15 340 -4 333 -3 341 18 373 11 17 20 25 19
17 -3 -32 2 -48 16 -54 13 -4 13 -2 5 14 -5 10 -10 25 -10 32 1 7 16 -23 34
-67 18 -44 40 -96 49 -115 9 -19 39 -96 67 -170 28 -74 69 -181 91 -237 21
-56 39 -107 39 -113 0 -6 23 -34 50 -62 46 -46 53 -50 85 -45 54 9 91 45 130
125 19 40 35 78 35 84 0 6 14 39 31 73 17 34 32 68 33 76 2 8 8 27 14 42 7 16
12 33 12 38 0 6 5 7 12 3 8 -5 9 0 6 14 -4 12 -2 20 3 16 5 -3 9 4 9 15 0 12
9 26 20 33 11 7 20 20 20 29 0 28 27 83 33 68 3 -8 6 -5 6 9 1 12 5 22 10 22
5 0 11 14 15 31 5 27 7 29 21 16 13 -13 15 -63 15 -332 l0 -317 -30 -30 c-33
-32 -32 -48 4 -48 23 0 69 -43 59 -54 -4 -3 1 -6 10 -6 10 0 17 -4 17 -8 0
-16 65 -41 180 -68 173 -41 286 -53 321 -33 13 7 27 12 30 12 4 -1 6 5 5 15
-1 11 8 18 26 20 l27 3 -31 50 c-16 27 -39 73 -50 101 -19 50 -19 72 -13 672
4 342 10 623 14 626 9 6 22 80 26 153 3 39 1 46 -10 37 -24 -20 -25 6 -2 51
16 32 35 51 69 69 27 14 48 28 48 32 0 3 -26 9 -57 12 -62 7 -623 46 -661 46
-19 0 -29 -13 -57 -72 -61 -134 -127 -282 -197 -443 -38 -88 -73 -164 -77
-168 -5 -5 -12 5 -16 22 -6 28 -100 288 -205 568 l-42 112 -61 5 c-52 5 -505
26 -559 26 -10 0 -18 -3 -19 -7z" />
                <path fill="#a9b3bc" d="M3830 5044 c-25 -2 -157 -9 -295 -15 -137 -6 -252 -13 -254 -15 -2
-1 13 -26 34 -53 28 -39 39 -66 46 -113 11 -83 11 -1015 -1 -1097 -18 -126
-99 -193 -240 -199 -68 -3 -79 -1 -117 24 -23 15 -47 39 -55 53 -10 21 -14
149 -16 621 -3 664 -3 655 64 707 70 53 58 54 -381 27 -320 -19 -395 -25 -400
-35 -3 -4 4 -10 15 -14 30 -10 79 -53 98 -89 15 -28 18 -90 23 -631 6 -618 8
-638 50 -731 10 -23 21 -54 25 -68 3 -14 11 -26 16 -26 6 0 7 -7 4 -16 -3 -8
-2 -13 3 -10 5 3 12 -5 15 -19 4 -14 11 -25 17 -25 6 0 7 5 3 12 -4 7 -3 8 4
4 9 -5 9 -13 1 -29 -7 -12 -8 -19 -4 -15 4 4 25 -14 46 -38 22 -25 54 -57 72
-72 17 -15 34 -29 37 -32 3 -3 30 -17 60 -32 128 -62 160 -70 304 -75 149 -7
270 8 364 44 35 13 68 20 74 17 6 -4 8 -2 5 3 -4 6 19 22 54 37 63 27 157 94
220 156 64 63 149 213 149 263 0 13 3 27 8 31 4 4 8 17 8 29 1 12 7 76 13 142
6 67 11 339 11 615 0 318 4 509 11 533 6 21 26 56 45 76 19 21 34 44 34 50 0
11 -54 12 -170 5z" />
                <path fill="#6f7d87" d="M9166 3173 c-130 -135 -241 -222 -375 -291 -199 -104 -393 -148 -601
-138 -147 6 -261 37 -434 117 -72 33 -136 62 -142 65 -6 3 -18 -22 -28 -57
-66 -238 -285 -526 -516 -678 -187 -123 -368 -198 -591 -243 -101 -20 -142
-23 -364 -23 -235 0 -258 2 -380 28 -239 51 -430 126 -595 233 -39 25 -74 43
-77 40 -9 -8 23 -41 160 -164 64 -58 117 -112 117 -120 0 -8 6 -12 15 -9 8 4
17 1 21 -5 4 -7 3 -8 -4 -4 -23 14 -12 -10 13 -28 14 -10 25 -24 25 -31 0 -7
7 -16 16 -19 8 -3 12 -2 9 4 -3 6 1 7 9 4 9 -3 14 -10 11 -15 -3 -4 5 -13 17
-20 13 -6 32 -20 43 -30 37 -35 112 -87 136 -94 13 -4 29 -11 34 -15 66 -49
340 -163 447 -185 39 -9 73 -17 77 -20 4 -2 54 -11 110 -20 131 -21 439 -25
536 -7 306 57 429 102 654 237 25 15 85 58 91 65 3 3 15 13 27 21 49 34 201
182 238 233 58 81 91 91 161 53 56 -30 141 -71 187 -91 44 -19 218 -56 292
-62 80 -7 350 33 380 56 6 4 45 22 87 40 87 36 208 118 284 194 29 28 58 56
65 62 24 20 54 59 51 67 -1 4 5 7 13 7 8 0 15 7 15 15 0 8 7 15 15 15 8 0 15
6 15 13 0 8 11 19 24 25 44 20 135 -3 185 -47 14 -12 31 -19 38 -17 7 3 13 1
13 -4 0 -12 175 -64 260 -78 191 -32 454 -17 660 36 70 19 220 62 242 71 13 5
43 17 68 26 178 69 415 200 527 291 65 53 123 109 123 120 0 5 9 20 20 34 21
26 26 45 11 35 -5 -3 -12 -2 -15 3 -3 5 38 51 90 103 51 51 94 97 94 101 0 3
-42 4 -92 1 -108 -6 -391 8 -672 34 l-197 17 -52 -58 c-110 -127 -279 -155
-396 -67 -40 31 -88 126 -97 194 -4 26 -10 50 -14 52 -5 3 -185 12 -402 20
-216 8 -433 16 -482 19 l-89 5 -111 -116z" />
                <path fill="#6f7d87" d="M5020 3233 c-672 -39 -970 -70 -1340 -139 -244 -45 -410 -92 -410
-114 0 -4 76 -10 170 -13 93 -3 174 -8 180 -12 7 -5 5 -11 -6 -19 -16 -12 -16
-13 0 -19 10 -4 15 -11 12 -16 -9 -14 67 -29 289 -56 346 -42 517 -74 771
-144 57 -15 114 -45 114 -59 0 -7 5 -10 10 -7 6 4 8 12 4 18 -3 7 6 -1 20 -18
19 -22 22 -32 13 -38 -8 -6 -7 -7 5 -4 19 6 42 -15 30 -28 -4 -5 -1 -5 6 -1 9
5 15 1 19 -13 3 -12 12 -21 19 -21 8 0 14 -4 14 -8 0 -4 14 -16 31 -26 17 -10
28 -20 25 -24 -3 -3 -16 3 -28 14 -20 17 -20 16 2 -13 14 -18 28 -32 33 -32 4
-1 30 -23 57 -51 27 -27 54 -50 59 -50 5 0 24 -14 42 -31 18 -17 46 -37 63
-46 17 -9 33 -19 36 -23 7 -10 88 -61 130 -82 40 -19 108 -45 163 -60 20 -6
37 -13 37 -17 0 -3 10 -7 23 -7 12 -1 78 -14 147 -30 117 -26 139 -28 345 -28
203 0 228 2 330 27 150 36 223 60 324 107 98 46 86 40 181 103 116 79 185 141
173 160 -3 6 -1 7 5 3 13 -8 61 41 62 61 0 6 4 15 10 18 6 3 8 -2 5 -12 -3
-10 0 -8 6 5 7 12 15 22 20 22 7 0 59 83 59 95 0 3 -12 -7 -26 -22 l-25 -28
22 33 c13 17 26 32 29 32 4 0 12 12 18 26 7 15 17 22 24 18 6 -4 8 -3 5 3 -4
6 18 55 49 109 43 79 104 230 104 261 0 3 -17 -10 -39 -30 -97 -88 -405 -222
-660 -287 -237 -60 -562 -85 -746 -57 -279 44 -507 154 -665 324 -71 76 -152
190 -164 231 -8 23 -21 25 -186 15z" />
        </g>
</svg>
